<?xml version="1.0" standalone="no"?><!DOCTYPE svg PUBLIC "-//W3C//DTD SVG 1.1//EN" "http://www.w3.org/Graphics/SVG/1.1/DTD/svg11.dtd"><svg t="1597732075659" class="icon" viewBox="0 0 1024 1024" version="1.1" xmlns="http://www.w3.org/2000/svg" p-id="14953" xmlns:xlink="http://www.w3.org/1999/xlink" width="200" height="200"><defs><style type="text/css"></style></defs><path d="M938.88 714.88a338.56 338.56 0 0 1-82.56-221.44c0-197.12-108.8-315.52-252.48-349.12a78.08 78.08 0 0 0 0-8.96 79.04 79.04 0 1 0-158.08 0 78.08 78.08 0 0 0 0 8.96c-140.8 32-252.48 149.12-252.48 349.12a338.56 338.56 0 0 1-82.56 221.44C76.48 756.8 98.56 832 160 832h732.8c62.08 0 80-77.76 46.08-117.12zM524.8 984.32A126.08 126.08 0 0 0 644.8 896h-240a126.08 126.08 0 0 0 120 88.32z" fill="#d81e06" p-id="14954"></path></svg>