<svg t="1597737438468" class="icon" viewBox="0 0 1024 1024" version="1.1" xmlns="http://www.w3.org/2000/svg" p-id="5978" width="200" height="200"><path d="M514.632941 47.318017c-257.118465 0-465.581036 208.441165-465.581036 465.581036s208.462571 465.581036 465.581036 465.581036c257.139871 0 465.581036-208.441165 465.581036-465.581036s-208.441165-465.581036-465.581036-465.581036z m0 856.240985c-215.398123 0-390.659949-175.240421-390.659949-390.659949s175.261827-390.659949 390.659949-390.659949c215.419529 0 390.659949 175.240421 390.659949 390.659949s-175.240421 390.659949-390.659949 390.659949z" fill="#fe8800" p-id="5979"></path><path d="M514.632941 641.003407c-20.699626 0-37.460543-12.918536-37.460543-28.844618v-354.38744c0-15.926082 16.760917-28.823212 37.460543-28.823213s37.460543 12.89713 37.460543 28.823213v354.38744c0 15.926082-16.760917 28.844618-37.460543 28.844618z" fill="#fe8800" p-id="5980"></path><path d="M514.632941 743.345611m-53.515062 0a53.515062 53.515062 0 1 0 107.030124 0 53.515062 53.515062 0 1 0-107.030124 0Z" fill="#fe8800" p-id="5981"></path></svg>