<!-- Generator: Adobe Illustrator 19.0.0, SVG Export Plug-In  -->
<svg version="1.1"
	 xmlns="http://www.w3.org/2000/svg" xmlns:xlink="http://www.w3.org/1999/xlink" xmlns:a="http://ns.adobe.com/AdobeSVGViewerExtensions/3.0/"
	 x="0px" y="0px" width="163.9px" height="163.9px" viewBox="0 0 163.9 163.9" style="enable-background:new 0 0 163.9 163.9;"
	 xml:space="preserve">
<style type="text/css">
	.st0{fill:#FFFFFF;}
	.st1{fill:#CEFFFF;}
	.st2{fill:#448AFF;}
	.st3{fill:#2979FF;}
	.st4{fill:none;stroke:#448AFF;stroke-width:3.5;stroke-linecap:round;stroke-linejoin:round;stroke-miterlimit:10;}
	.st5{fill:#BBDEFB;stroke:#448AFF;stroke-width:3.5;stroke-linecap:round;stroke-linejoin:round;stroke-miterlimit:10;}
	.st6{fill:#BBDEFB;}
</style>
<defs>
</defs>
<rect class="st0" width="163.9" height="163.9"/>
<circle class="st1" cx="82" cy="81.9" r="52.8"/>
<g>
	<g>
		<path class="st2" d="M30.4,70.2c0,0,0.1,0.6,0.2,1.6c0.1,1,0.2,2.3,0.2,3.6c0,1.3-0.1,2.6-0.2,3.6c-0.1,1-0.2,1.6-0.2,1.6
			c-0.2,1-1.2,1.6-2.2,1.4c-0.7-0.2-1.3-0.7-1.4-1.4c0,0-0.1-0.6-0.2-1.6c-0.1-1-0.2-2.3-0.2-3.6c0-1.3,0.1-2.6,0.2-3.6
			c0.1-1,0.2-1.6,0.2-1.6c0.2-1,1.2-1.6,2.2-1.4C29.7,69,30.3,69.5,30.4,70.2z"/>
	</g>
	<g>
		<path class="st2" d="M33.8,77.2c0,0-0.6,0.1-1.6,0.2c-1,0.1-2.3,0.2-3.6,0.2c-1.3,0-2.6-0.1-3.6-0.2c-1-0.1-1.6-0.2-1.6-0.2
			C22.4,77,21.8,76,22,75c0.2-0.7,0.7-1.3,1.4-1.4c0,0,0.6-0.1,1.6-0.2c1-0.1,2.3-0.2,3.6-0.2c1.3,0,2.6,0.1,3.6,0.2
			c1,0.1,1.6,0.2,1.6,0.2c1,0.2,1.6,1.2,1.4,2.2C35,76.5,34.5,77.1,33.8,77.2z"/>
	</g>
</g>
<g>
	<g>
		<path class="st2" d="M135.1,24c0,0,0.1,0.6,0.2,1.6c0.1,1,0.2,2.3,0.2,3.6c0,1.3-0.1,2.6-0.2,3.6c-0.1,1-0.2,1.6-0.2,1.6
			c-0.2,1-1.2,1.6-2.2,1.4c-0.7-0.2-1.3-0.7-1.4-1.4c0,0-0.1-0.6-0.2-1.6c-0.1-1-0.2-2.3-0.2-3.6c0-1.3,0.1-2.6,0.2-3.6
			c0.1-1,0.2-1.6,0.2-1.6c0.2-1,1.2-1.6,2.2-1.4C134.4,22.7,134.9,23.3,135.1,24z"/>
	</g>
	<g>
		<path class="st2" d="M138.4,31c0,0-0.6,0.1-1.6,0.2c-1,0.1-2.3,0.2-3.6,0.2c-1.3,0-2.6-0.1-3.6-0.2c-1-0.1-1.6-0.2-1.6-0.2
			c-1-0.2-1.6-1.2-1.4-2.2c0.2-0.7,0.7-1.3,1.4-1.4c0,0,0.6-0.1,1.6-0.2c1-0.1,2.3-0.2,3.6-0.2c1.3,0,2.6,0.1,3.6,0.2
			c1,0.1,1.6,0.2,1.6,0.2c1,0.2,1.6,1.2,1.4,2.2C139.7,30.3,139.1,30.8,138.4,31z"/>
	</g>
</g>
<circle class="st3" cx="108.9" cy="15.7" r="2.3"/>
<circle class="st3" cx="94.2" cy="131" r="2.3"/>
<g>
	<path class="st4" d="M118.1,44.4c3.2,1.6,5.5,4.9,5.5,8.8v56.6c0,5.4-4.4,9.8-9.8,9.8H54.3c-3.8,0-7.1-2.2-8.7-5.3"/>
	<path class="st0" d="M44.7,39.7c-2.4,0-4.4,2-4.4,4.4v64.7c0,2.4,2,4.4,4.4,4.4h6.6h61.5c2.4,0,4.4-2,4.4-4.4V44.2
		c0-2.4-2-4.4-4.4-4.4L44.7,39.7z"/>
	<g>
		<rect x="50.1" y="61" class="st5" width="57.4" height="18.9"/>
		<rect x="50.1" y="86.2" class="st4" width="15.5" height="16.5"/>
		<rect x="71" y="86.2" class="st4" width="15.5" height="16.5"/>
		<rect x="91.9" y="86.2" class="st4" width="15.5" height="16.5"/>
		<line class="st4" x1="65.6" y1="51.1" x2="107.5" y2="51.1"/>
		<line class="st4" x1="50.1" y1="51.1" x2="57.9" y2="51.1"/>
	</g>
	<g>
		<path class="st6" d="M112.8,39.7l-68.1,0c-2.4,0-4.4,2-4.4,4.4v1l66.6,0c2.4,0,4.4,2,4.4,4.4v63.8h1.5c2.4,0,4.4-2,4.4-4.4V44.2
			C117.3,41.7,115.3,39.7,112.8,39.7z"/>
	</g>
	<path class="st4" d="M44.7,39.7c-2.4,0-4.4,2-4.4,4.4v64.7c0,2.4,2,4.4,4.4,4.4h6.6h61.5c2.4,0,4.4-2,4.4-4.4V44.2
		c0-2.4-2-4.4-4.4-4.4L44.7,39.7z"/>
</g>
</svg>
