<!-- Generator: Adobe Illustrator 19.0.0, SVG Export Plug-In  -->
<svg version="1.1"
	 xmlns="http://www.w3.org/2000/svg" xmlns:xlink="http://www.w3.org/1999/xlink" xmlns:a="http://ns.adobe.com/AdobeSVGViewerExtensions/3.0/"
	 x="0px" y="0px" width="163.9px" height="163.9px" viewBox="0 0 163.9 163.9" style="enable-background:new 0 0 163.9 163.9;"
	 xml:space="preserve">
<style type="text/css">
	.st0{fill:#FFFFFF;}
	.st1{fill:#CEFFFF;}
	.st2{fill:#BBDEFB;}
	.st3{fill:#448AFF;}
	.st4{fill:#2979FF;}
	.st5{fill:none;stroke:#448AFF;stroke-width:3.5;stroke-linecap:round;stroke-linejoin:round;stroke-miterlimit:10;}
	.st6{fill:#BBDEFB;stroke:#448AFF;stroke-width:3.5;stroke-linecap:round;stroke-linejoin:round;stroke-miterlimit:10;}
</style>
<defs>
</defs>
<rect class="st0" width="163.9" height="163.9"/>
<circle class="st1" cx="82" cy="81.8" r="51.5"/>
<path class="st0" d="M103.9,47.1c0-3.5-2.9-6.4-6.4-6.4h-31c-3.5,0-6.4,2.9-6.4,6.4v9.5v59.1c0,3.5,2.9,6.4,6.4,6.4h31
	c3.5,0,6.4-2.9,6.4-6.4V47.1z"/>
<g>
	<path class="st2" d="M96.9,40.6H63.8c-3,0-2.6,2-3.5,4.7c0.7-0.2-1.6-0.3-0.9-0.3h34.8c3.8,0,5.1,3.1,5.1,6.8V120
		c0,0.7-0.1,1.5-0.3,2.1c2.7-0.9,4.7-3.5,4.7-6.5V47.5C103.7,43.7,100.7,40.6,96.9,40.6z"/>
</g>
<g>
	<g>
		<path class="st3" d="M118.3,62.9c0,0,0.1,0.6,0.2,1.6c0.1,0.9,0.2,2.2,0.2,3.5c0,1.3-0.1,2.5-0.2,3.5c-0.1,0.9-0.2,1.6-0.2,1.6
			c-0.2,1-1.2,1.6-2.2,1.4c-0.7-0.2-1.2-0.7-1.4-1.4c0,0-0.1-0.6-0.2-1.6c-0.1-0.9-0.2-2.2-0.2-3.5c0-1.3,0.1-2.5,0.2-3.5
			c0.1-0.9,0.2-1.6,0.2-1.6c0.2-1,1.2-1.6,2.2-1.4C117.6,61.7,118.1,62.2,118.3,62.9z"/>
	</g>
	<g>
		<path class="st3" d="M121.5,69.8c0,0-0.6,0.1-1.6,0.2c-0.9,0.1-2.2,0.2-3.5,0.2c-1.3,0-2.5-0.1-3.5-0.2c-0.9-0.1-1.6-0.2-1.6-0.2
			c-1-0.2-1.6-1.2-1.4-2.2c0.2-0.7,0.7-1.2,1.4-1.4c0,0,0.6-0.1,1.6-0.2c0.9-0.1,2.2-0.2,3.5-0.2c1.3,0,2.5,0.1,3.5,0.2
			c0.9,0.1,1.6,0.2,1.6,0.2c1,0.2,1.6,1.2,1.4,2.2C122.7,69.1,122.2,69.6,121.5,69.8z"/>
	</g>
</g>
<g>
	<g>
		<path class="st3" d="M53.4,33.4c0,0,0.1,0.6,0.2,1.6c0.1,0.9,0.2,2.2,0.2,3.5c0,1.3-0.1,2.5-0.2,3.5c-0.1,0.9-0.2,1.6-0.2,1.6
			c-0.2,1-1.2,1.6-2.2,1.4c-0.7-0.2-1.2-0.7-1.4-1.4c0,0-0.1-0.6-0.2-1.6c-0.1-0.9-0.2-2.2-0.2-3.5c0-1.3,0.1-2.5,0.2-3.5
			c0.1-0.9,0.2-1.6,0.2-1.6c0.2-1,1.2-1.6,2.2-1.4C52.7,32.2,53.2,32.7,53.4,33.4z"/>
	</g>
	<g>
		<path class="st3" d="M56.6,40.3c0,0-0.6,0.1-1.6,0.2c-0.9,0.1-2.2,0.2-3.5,0.2c-1.3,0-2.5-0.1-3.5-0.2c-0.9-0.1-1.6-0.2-1.6-0.2
			c-1-0.2-1.6-1.2-1.4-2.2c0.2-0.7,0.7-1.2,1.4-1.4c0,0,0.6-0.1,1.6-0.2c0.9-0.1,2.2-0.2,3.5-0.2c1.3,0,2.5,0.1,3.5,0.2
			c0.9,0.1,1.6,0.2,1.6,0.2c1,0.2,1.6,1.2,1.4,2.2C57.8,39.6,57.3,40.1,56.6,40.3z"/>
	</g>
</g>
<circle class="st4" cx="111.4" cy="30.3" r="2.2"/>
<path class="st5" d="M103.9,47.1c0-3.5-2.9-6.4-6.4-6.4h-31c-3.5,0-6.4,2.9-6.4,6.4v9.5v59.1c0,3.5,2.9,6.4,6.4,6.4h31
	c3.5,0,6.4-2.9,6.4-6.4V47.1z"/>
<line class="st5" x1="60" y1="50.5" x2="103.9" y2="50.5"/>
<line class="st5" x1="60" y1="108.2" x2="103.9" y2="108.2"/>
<line class="st5" x1="79.4" y1="114.8" x2="84.5" y2="114.8"/>
<path class="st6" d="M95.5,85.6c0,1.1-0.9,2-2,2h-3.9l-3.7,5.2l-3.8-5.2H70.4c-1.1,0-2-0.9-2-2V71.4c0-1.1,0.9-2,2-2h23.1
	c1.1,0,2,0.9,2,2V85.6z"/>
</svg>
