<!-- Generator: Adobe Illustrator 19.0.0, SVG Export Plug-In  -->
<svg version="1.1"
	 xmlns="http://www.w3.org/2000/svg" xmlns:xlink="http://www.w3.org/1999/xlink" xmlns:a="http://ns.adobe.com/AdobeSVGViewerExtensions/3.0/"
	 x="0px" y="0px" width="164px" height="163.9px" viewBox="0 0 164 163.9" style="enable-background:new 0 0 164 163.9;"
	 xml:space="preserve">
<style type="text/css">
	.st0{fill:#FFFFFF;}
	.st1{fill:#CEFFFF;}
	.st2{fill:#BBDEFB;}
	.st3{fill:#448AFF;}
	.st4{fill:#2979FF;}
	.st5{fill:#BBDEFB;stroke:#448AFF;stroke-width:3.5;stroke-linecap:round;stroke-linejoin:round;stroke-miterlimit:10;}
	.st6{fill:none;stroke:#448AFF;stroke-width:3.5;stroke-linecap:round;stroke-linejoin:round;stroke-miterlimit:10;}
	.st7{fill:#84FFFF;stroke:#448AFF;stroke-width:3.5;stroke-linecap:round;stroke-linejoin:round;stroke-miterlimit:10;}
	.st8{fill:#FFFFFF;stroke:#448AFF;stroke-width:3.5;stroke-linecap:round;stroke-linejoin:round;stroke-miterlimit:10;}
</style>
<defs>
</defs>
<rect x="0.1" class="st0" width="163.9" height="163.9"/>
<circle class="st1" cx="82" cy="82" r="52.5"/>
<path class="st0" d="M139,112.7V47.4c0-2.7-2.2-4.8-4.8-4.8H34c-2.7,0-4.8,2.2-4.8,4.8v65.3"/>
<g>
	<path class="st2" d="M139,47.4c0-2.7-2.2-4.8-4.8-4.8H34c-2.7,0-4.8,2.2-4.8,4.8v1.9h98.5c2.7,0,4.8,2.2,4.8,4.8v58.5h6.5V47.4z"/>
</g>
<g>
	<g>
		<path class="st3" d="M156.1,32.7c0,0,0.1,0.6,0.2,1.6c0.1,1,0.2,2.3,0.2,3.5c0,1.3-0.1,2.6-0.2,3.5c-0.1,1-0.2,1.6-0.2,1.6
			c-0.2,1-1.2,1.6-2.2,1.4c-0.7-0.2-1.3-0.7-1.4-1.4c0,0-0.1-0.6-0.2-1.6c-0.1-1-0.2-2.3-0.2-3.5c0-1.3,0.1-2.6,0.2-3.5
			c0.1-1,0.2-1.6,0.2-1.6c0.2-1,1.2-1.6,2.2-1.4C155.4,31.4,156,32,156.1,32.7z"/>
	</g>
	<g>
		<path class="st3" d="M159.5,39.6c0,0-0.6,0.1-1.6,0.2c-1,0.1-2.3,0.2-3.5,0.2c-1.3,0-2.6-0.1-3.5-0.2c-1-0.1-1.6-0.2-1.6-0.2
			c-1-0.2-1.6-1.2-1.4-2.2c0.2-0.7,0.7-1.3,1.4-1.4c0,0,0.6-0.1,1.6-0.2c1-0.1,2.3-0.2,3.5-0.2c1.3,0,2.6,0.1,3.5,0.2
			c1,0.1,1.6,0.2,1.6,0.2c1,0.2,1.6,1.2,1.4,2.2C160.7,39,160.1,39.5,159.5,39.6z"/>
	</g>
</g>
<g>
	<g>
		<path class="st3" d="M8.4,92.5c0,0,0.1,0.6,0.2,1.6c0.1,1,0.2,2.3,0.2,3.5c0,1.3-0.1,2.6-0.2,3.5c-0.1,1-0.2,1.6-0.2,1.6
			c-0.2,1-1.2,1.6-2.2,1.4c-0.7-0.2-1.3-0.7-1.4-1.4c0,0-0.1-0.6-0.2-1.6c-0.1-1-0.2-2.3-0.2-3.5c0-1.3,0.1-2.6,0.2-3.5
			c0.1-1,0.2-1.6,0.2-1.6C5,91.5,6,90.9,7,91.1C7.7,91.3,8.3,91.8,8.4,92.5z"/>
	</g>
	<g>
		<path class="st3" d="M11.7,99.5c0,0-0.6,0.1-1.6,0.2c-1,0.1-2.3,0.2-3.5,0.2c-1.3,0-2.6-0.1-3.5-0.2c-1-0.1-1.6-0.2-1.6-0.2
			c-1-0.2-1.6-1.2-1.4-2.2c0.2-0.7,0.7-1.3,1.4-1.4c0,0,0.6-0.1,1.6-0.2c1-0.1,2.3-0.2,3.5-0.2c1.3,0,2.6,0.1,3.5,0.2
			c1,0.1,1.6,0.2,1.6,0.2c1,0.2,1.6,1.2,1.4,2.2C13,98.8,12.4,99.3,11.7,99.5z"/>
	</g>
</g>
<g>
	<g>
		<path class="st3" d="M85.9,10.9c0,0,0.1,0.6,0.2,1.6c0.1,1,0.2,2.3,0.2,3.5c0,1.3-0.1,2.6-0.2,3.5c-0.1,1-0.2,1.6-0.2,1.6
			c-0.2,1-1.2,1.6-2.2,1.4c-0.7-0.2-1.3-0.7-1.4-1.4c0,0-0.1-0.6-0.2-1.6c-0.1-1-0.2-2.3-0.2-3.5c0-1.3,0.1-2.6,0.2-3.5
			c0.1-1,0.2-1.6,0.2-1.6c0.2-1,1.2-1.6,2.2-1.4C85.2,9.6,85.8,10.2,85.9,10.9z"/>
	</g>
	<g>
		<path class="st3" d="M89.2,17.9c0,0-0.6,0.1-1.6,0.2c-1,0.1-2.3,0.2-3.5,0.2c-1.3,0-2.6-0.1-3.5-0.2c-1-0.1-1.6-0.2-1.6-0.2
			c-1-0.2-1.6-1.2-1.4-2.2c0.2-0.7,0.7-1.3,1.4-1.4c0,0,0.6-0.1,1.6-0.2c1-0.1,2.3-0.2,3.5-0.2c1.3,0,2.6,0.1,3.5,0.2
			c1,0.1,1.6,0.2,1.6,0.2c1,0.2,1.6,1.2,1.4,2.2C90.5,17.2,89.9,17.7,89.2,17.9z"/>
	</g>
</g>
<circle class="st4" cx="125" cy="2.3" r="2.3"/>
<circle class="st4" cx="6.6" cy="43" r="2.3"/>
<rect x="97.5" y="57.5" class="st5" width="25.9" height="41.9"/>
<path class="st6" d="M139,112.7V47.4c0-2.7-2.2-4.8-4.8-4.8H34c-2.7,0-4.8,2.2-4.8,4.8v65.3"/>
<path class="st5" d="M21.9,114.1v5.7c0,2.7,2.2,4.8,4.8,4.8h114.8c2.7,0,4.8-2.2,4.8-4.8V114L21.9,114.1z"/>
<path class="st7" d="M83.3,107.6"/>
<path class="st7" d="M83.3,107.6"/>
<polygon class="st8" points="129.6,97.5 115.7,88.9 119.8,104.8 "/>
<line class="st6" x1="125" y1="101.5" x2="128.1" y2="105.8"/>
<line class="st7" x1="43.2" y1="57.4" x2="82" y2="57.4"/>
<line class="st7" x1="43.2" y1="67.9" x2="82" y2="67.9"/>
<line class="st7" x1="43.2" y1="78.4" x2="82" y2="78.4"/>
<line class="st7" x1="43.2" y1="88.9" x2="82" y2="88.9"/>
<line class="st7" x1="43.2" y1="99.4" x2="82" y2="99.4"/>
<g>
	<path class="st6" d="M110.6,77.3c2.7,0.6,4,1.4,4,3.1c0,1.9-1.7,3.3-4.3,3.3c-2.4,0-3.9-1.3-4-1.4"/>
	<path class="st6" d="M110.6,77.3c-2.7-0.6-4.4-1.6-4.4-3.4c0-1.9,1.7-3.3,4.3-3.3c2.4,0,3.8,1.3,4,1.5"/>
</g>
<line class="st7" x1="110.6" y1="70.7" x2="110.6" y2="68"/>
<line class="st7" x1="110.6" y1="86.4" x2="110.6" y2="83.7"/>
</svg>
