<!-- Generator: Adobe Illustrator 19.0.0, SVG Export Plug-In  -->
<svg version="1.1"
	 xmlns="http://www.w3.org/2000/svg" xmlns:xlink="http://www.w3.org/1999/xlink" xmlns:a="http://ns.adobe.com/AdobeSVGViewerExtensions/3.0/"
	 x="0px" y="0px" width="215.3px" height="173.9px" viewBox="0 0 215.3 173.9" style="enable-background:new 0 0 215.3 173.9;"
	 xml:space="preserve">
<style type="text/css">
	.st0{fill:#FFFFFF;}
	.st1{fill:#BBDEFB;}
	.st2{fill:#448AFF;}
</style>
<defs>
</defs>
<polyline id="XMLID_49_" class="st0" points="118.2,145 118.2,171.3 97.2,171.3 97.2,145 "/>
<rect id="XMLID_48_" x="107.9" y="145" class="st1" width="10.3" height="26.3"/>
<path id="XMLID_47_" class="st0" d="M11.9,2.6c-5.2,0-9.4,4.2-9.4,9.4v123.8c0,5.2,4.2,9.4,9.4,9.4h13.9h177.6
	c5.2,0,9.4-4.2,9.4-9.4V11.9c0-5.2-4.2-9.4-9.4-9.4H11.9z"/>
<path id="XMLID_46_" class="st2" d="M111.5,138.7h-7.6c-1.4,0-2.6-1.2-2.6-2.6s1.2-2.6,2.6-2.6h7.6c1.4,0,2.6,1.2,2.6,2.6
	S112.9,138.7,111.5,138.7z"/>
<path id="XMLID_45_" class="st2" d="M118.2,173.9h-21c-1.4,0-2.6-1.2-2.6-2.6V145c0-1.4,1.2-2.6,2.6-2.6c1.4,0,2.6,1.2,2.6,2.6v23.7
	h15.9V145c0-1.4,1.2-2.6,2.6-2.6s2.6,1.2,2.6,2.6v26.3C120.7,172.8,119.6,173.9,118.2,173.9z"/>
<path id="XMLID_44_" class="st2" d="M138,173.9H77.4c-1.4,0-2.6-1.2-2.6-2.6c0-1.4,1.2-2.6,2.6-2.6H138c1.4,0,2.6,1.2,2.6,2.6
	C140.6,172.8,139.4,173.9,138,173.9z"/>
<path id="XMLID_41_" class="st2" d="M203.4,147.6H11.9c-6.6,0-11.9-5.3-11.9-11.9V11.9C0,5.4,5.3,0,11.9,0h191.5
	c6.6,0,11.9,5.4,11.9,11.9v123.8C215.3,142.3,210,147.6,203.4,147.6z M11.9,5.1c-3.7,0-6.8,3-6.8,6.8v123.8c0,3.7,3,6.8,6.8,6.8
	h191.5c3.7,0,6.8-3,6.8-6.8V11.9c0-3.7-3-6.8-6.8-6.8H11.9z"/>
<g id="XMLID_35_">
	<path id="XMLID_40_" class="st1" d="M2.6,127.3v8.4c0,5.2,4.2,9.4,9.4,9.4h13.9h177.6c5.2,0,9.4-4.2,9.4-9.4v-8.4L2.6,127.3z"/>
	<path id="XMLID_36_" class="st2" d="M203.4,147.6H11.9c-6.6,0-11.9-5.3-11.9-11.9v-8.4c0-1.4,1.2-2.6,2.6-2.6l210.2,0
		c0.7,0,1.3,0.3,1.8,0.8c0.5,0.5,0.8,1.1,0.8,1.8v8.4C215.3,142.3,210,147.6,203.4,147.6z M5.1,129.9v5.8c0,3.7,3,6.8,6.8,6.8h191.5
		c3.7,0,6.8-3,6.8-6.8v-5.8L5.1,129.9z"/>
</g>
<path id="XMLID_17_" class="st2" d="M133.5,113.2H81.9c-10,0-18.1-8.1-18.1-18.1V43.5c0-10,8.1-18,18.1-18h51.6
	c10,0,18.1,8.1,18.1,18v51.6C151.5,105.1,143.4,113.2,133.5,113.2z M81.9,30.6c-7.1,0-12.9,5.8-12.9,12.9v51.6
	c0,7.1,5.8,12.9,12.9,12.9h51.6c7.1,0,12.9-5.8,12.9-12.9V43.5c0-7.1-5.8-12.9-12.9-12.9H81.9z"/>
<path id="XMLID_16_" class="st2" d="M107.9,96.1c-12.3,0-23.4-5.5-28.8-14.3c-0.9-1.5-0.5-3.5,1-4.4c1.5-0.9,3.5-0.5,4.4,1
	c4.2,6.8,13.4,11.3,23.4,11.3c10,0,19.2-4.4,23.4-11.3c0.9-1.5,2.9-2,4.4-1c1.5,0.9,2,2.9,1,4.4C131.3,90.7,120.2,96.1,107.9,96.1z"
	/>
<path id="XMLID_15_" class="st2" d="M99.5,58.6c0,2.2-1.8,3.9-3.9,3.9H82.4c-2.2,0-3.9-1.8-3.9-3.9V45.4c0-2.2,1.8-3.9,3.9-3.9h13.1
	c2.2,0,3.9,1.8,3.9,3.9V58.6z"/>
</svg>
