<!-- Generator: Adobe Illustrator 19.0.0, SVG Export Plug-In  -->
<svg version="1.1"
	 xmlns="http://www.w3.org/2000/svg" xmlns:xlink="http://www.w3.org/1999/xlink" xmlns:a="http://ns.adobe.com/AdobeSVGViewerExtensions/3.0/"
	 x="0px" y="0px" width="163.9px" height="163.9px" viewBox="0 0 163.9 163.9" style="enable-background:new 0 0 163.9 163.9;"
	 xml:space="preserve">
<style type="text/css">
	.st0{fill:#FFFFFF;}
	.st1{fill:#CEFFFF;}
	.st2{fill:#448AFF;}
	.st3{fill:#2979FF;}
	.st4{fill:none;stroke:#84FFFF;stroke-width:3.651;stroke-linecap:round;stroke-linejoin:round;stroke-miterlimit:10;}
	.st5{fill:#BBDEFB;}
	.st6{fill:none;stroke:#448AFF;stroke-width:3.5;stroke-linecap:round;stroke-linejoin:round;stroke-miterlimit:10;}
</style>
<defs>
</defs>
<rect class="st0" width="163.9" height="163.9"/>
<circle class="st1" cx="82" cy="81.8" r="51.5"/>
<g>
	<g>
		<path class="st2" d="M115.5,89.2c0,0,0.1,0.6,0.2,1.6c0.1,0.9,0.2,2.2,0.2,3.5c0,1.3-0.1,2.5-0.2,3.5c-0.1,0.9-0.2,1.6-0.2,1.6
			c-0.2,1-1.2,1.6-2.2,1.4c-0.7-0.2-1.2-0.7-1.4-1.4c0,0-0.1-0.6-0.2-1.6c-0.1-0.9-0.2-2.2-0.2-3.5c0-1.3,0.1-2.5,0.2-3.5
			c0.1-0.9,0.2-1.6,0.2-1.6c0.2-1,1.2-1.6,2.2-1.4C114.8,88,115.3,88.5,115.5,89.2z"/>
	</g>
	<g>
		<path class="st2" d="M118.7,96.1c0,0-0.6,0.1-1.6,0.2c-0.9,0.1-2.2,0.2-3.5,0.2c-1.3,0-2.5-0.1-3.5-0.2c-0.9-0.1-1.6-0.2-1.6-0.2
			c-1-0.2-1.6-1.2-1.4-2.2c0.2-0.7,0.7-1.2,1.4-1.4c0,0,0.6-0.1,1.6-0.2c0.9-0.1,2.2-0.2,3.5-0.2c1.3,0,2.5,0.1,3.5,0.2
			c0.9,0.1,1.6,0.2,1.6,0.2c1,0.2,1.6,1.2,1.4,2.2C119.9,95.4,119.4,95.9,118.7,96.1z"/>
	</g>
</g>
<g>
	<g>
		<path class="st2" d="M48.3,70.1c0,0,0.1,0.6,0.2,1.6c0.1,0.9,0.2,2.2,0.2,3.5c0,1.3-0.1,2.5-0.2,3.5c-0.1,0.9-0.2,1.6-0.2,1.6
			c-0.2,1-1.2,1.6-2.2,1.4c-0.7-0.2-1.2-0.7-1.4-1.4c0,0-0.1-0.6-0.2-1.6c-0.1-0.9-0.2-2.2-0.2-3.5c0-1.3,0.1-2.5,0.2-3.5
			c0.1-0.9,0.2-1.6,0.2-1.6c0.2-1,1.2-1.6,2.2-1.4C47.6,68.8,48.2,69.4,48.3,70.1z"/>
	</g>
	<g>
		<path class="st2" d="M51.5,76.9c0,0-0.6,0.1-1.6,0.2c-0.9,0.1-2.2,0.2-3.5,0.2c-1.3,0-2.5-0.1-3.5-0.2c-0.9-0.1-1.6-0.2-1.6-0.2
			c-1-0.2-1.6-1.2-1.4-2.2c0.2-0.7,0.7-1.2,1.4-1.4c0,0,0.6-0.1,1.6-0.2c0.9-0.1,2.2-0.2,3.5-0.2c1.3,0,2.5,0.1,3.5,0.2
			c0.9,0.1,1.6,0.2,1.6,0.2c1,0.2,1.6,1.2,1.4,2.2C52.8,76.2,52.2,76.8,51.5,76.9z"/>
	</g>
</g>
<g>
	<g>
		<path class="st2" d="M105.6,30.3c0,0,0.1,0.6,0.2,1.6c0.1,0.9,0.2,2.2,0.2,3.5c0,1.3-0.1,2.5-0.2,3.5c-0.1,0.9-0.2,1.6-0.2,1.6
			c-0.2,1-1.2,1.6-2.2,1.4c-0.7-0.2-1.2-0.7-1.4-1.4c0,0-0.1-0.6-0.2-1.6c-0.1-0.9-0.2-2.2-0.2-3.5c0-1.3,0.1-2.5,0.2-3.5
			c0.1-0.9,0.2-1.6,0.2-1.6c0.2-1,1.2-1.6,2.2-1.4C104.9,29,105.4,29.6,105.6,30.3z"/>
	</g>
	<g>
		<path class="st2" d="M108.8,37.1c0,0-0.6,0.1-1.6,0.2c-0.9,0.1-2.2,0.2-3.5,0.2c-1.3,0-2.5-0.1-3.5-0.2c-0.9-0.1-1.6-0.2-1.6-0.2
			c-1-0.2-1.6-1.2-1.4-2.2c0.2-0.7,0.7-1.2,1.4-1.4c0,0,0.6-0.1,1.6-0.2c0.9-0.1,2.2-0.2,3.5-0.2c1.3,0,2.5,0.1,3.5,0.2
			c0.9,0.1,1.6,0.2,1.6,0.2c1,0.2,1.6,1.2,1.4,2.2C110,36.5,109.5,37,108.8,37.1z"/>
	</g>
</g>
<circle class="st3" cx="51.5" cy="124.4" r="2.2"/>
<circle class="st3" cx="111.4" cy="59.9" r="2.2"/>
<path class="st0" d="M98.9,87.8c0,9.5-7.7,17.2-17.2,17.2l0,0c-9.5,0-17.2-7.7-17.2-17.2V62.4c0-9.5,7.7-17.2,17.2-17.2l0,0
	c9.5,0,17.2,7.7,17.2,17.2V87.8z"/>
<g>
	<g>
		<g>
			<path class="st4" d="M71.4,108.1c1.6,0,2.9,1.3,2.9,2.9v4.1c0,1.6,1.3,2.9,2.9,2.9"/>
		</g>
		<g>
			<path class="st4" d="M71.6,108.1c-1.6,0-2.9,1.3-2.9,2.9v26.1"/>
		</g>
	</g>
	<path class="st4" d="M80.2,115.1c0,1.6-1.3,2.9-2.9,2.9"/>
	<line class="st4" x1="80.2" y1="104.5" x2="80.2" y2="115.1"/>
</g>
<g>
	<path class="st5" d="M81.6,45.3c-1.2,0-2.3,0.1-3.4,0.3c8.2,1.6,14.4,8.8,14.4,17.5v11.5h6.8V63C99.3,53.2,91.4,45.3,81.6,45.3z"/>
</g>
<g>
	<path class="st5" d="M81.6,103.9c-1.2,0-2.3-0.1-3.4-0.3c8.2-1.6,14.4-8.8,14.4-17.5V74.6h6.8v11.5
		C99.3,95.9,91.4,103.9,81.6,103.9z"/>
</g>
<line class="st6" x1="81.7" y1="45.3" x2="81.7" y2="74.6"/>
<g>
	<g>
		<path class="st6" d="M73,108.9c1.6,0,2.9,1.3,2.9,2.9v4.1c0,1.6,1.3,2.9,2.9,2.9"/>
	</g>
	<g>
		<path class="st6" d="M73.2,108.9c-1.6,0-2.9,1.3-2.9,2.9v26.1"/>
	</g>
</g>
<path class="st6" d="M81.7,115.9c0,1.6-1.3,2.9-2.9,2.9"/>
<line class="st6" x1="81.7" y1="105.3" x2="81.7" y2="115.9"/>
<path class="st6" d="M98.9,87.8c0,9.5-7.7,17.2-17.2,17.2l0,0c-9.5,0-17.2-7.7-17.2-17.2V62.4c0-9.5,7.7-17.2,17.2-17.2l0,0
	c9.5,0,17.2,7.7,17.2,17.2V87.8z"/>
<line class="st6" x1="64.6" y1="75.1" x2="98.9" y2="75.1"/>
</svg>
